%TF.GenerationSoftware,KiCad,Pcbnew,9.0.4*%
%TF.CreationDate,2025-10-28T23:19:01-04:00*%
%TF.ProjectId,DEL_MCPCB,44454c5f-4d43-4504-9342-2e6b69636164,rev?*%
%TF.SameCoordinates,Original*%
%TF.FileFunction,Drillmap*%
%TF.FilePolarity,Positive*%
%FSLAX45Y45*%
G04 Gerber Fmt 4.5, Leading zero omitted, Abs format (unit mm)*
G04 Created by KiCad (PCBNEW 9.0.4) date 2025-10-28 23:19:01*
%MOMM*%
%LPD*%
G01*
G04 APERTURE LIST*
%ADD10C,0.200000*%
%ADD11C,0.100000*%
G04 APERTURE END LIST*
D10*
X13177520Y-8978900D02*
G75*
G02*
X12964579Y-8978900I-106470J0D01*
G01*
X12964579Y-8978900D02*
G75*
G02*
X13177520Y-8978900I106470J0D01*
G01*
X14385020Y-8628000D02*
X16258440Y-8628000D01*
X16258440Y-9308000D01*
X14385020Y-9308000D01*
X14385020Y-8628000D01*
X17195800Y-8963660D02*
G75*
G02*
X16982859Y-8963660I-106470J0D01*
G01*
X16982859Y-8963660D02*
G75*
G02*
X17195800Y-8963660I106470J0D01*
G01*
X17362000Y-9035000D02*
G75*
G02*
X12662000Y-9035000I-2350000J0D01*
G01*
X12662000Y-9035000D02*
G75*
G02*
X17362000Y-9035000I2350000J0D01*
G01*
X14736000Y-8385000D02*
G75*
G02*
X14475723Y-8385000I-130138J0D01*
G01*
X14475723Y-8385000D02*
G75*
G02*
X14736000Y-8385000I130138J0D01*
G01*
X15334947Y-8463812D02*
G75*
G02*
X15122007Y-8463812I-106470J0D01*
G01*
X15122007Y-8463812D02*
G75*
G02*
X15334947Y-8463812I106470J0D01*
G01*
X14740138Y-10700000D02*
G75*
G02*
X14479862Y-10700000I-130138J0D01*
G01*
X14479862Y-10700000D02*
G75*
G02*
X14740138Y-10700000I130138J0D01*
G01*
D11*
X14658310Y-9711910D02*
X15003310Y-9711910D01*
X14658310Y-10302830D02*
X14658310Y-9711830D01*
X15003110Y-9711830D02*
X15003110Y-10302830D01*
X15003310Y-10303090D02*
X14658310Y-10303090D01*
D10*
X12912777Y-11706484D02*
X12912777Y-11506484D01*
X12912777Y-11506484D02*
X12960396Y-11506484D01*
X12960396Y-11506484D02*
X12988967Y-11516008D01*
X12988967Y-11516008D02*
X13008015Y-11535055D01*
X13008015Y-11535055D02*
X13017539Y-11554103D01*
X13017539Y-11554103D02*
X13027062Y-11592198D01*
X13027062Y-11592198D02*
X13027062Y-11620769D01*
X13027062Y-11620769D02*
X13017539Y-11658865D01*
X13017539Y-11658865D02*
X13008015Y-11677912D01*
X13008015Y-11677912D02*
X12988967Y-11696960D01*
X12988967Y-11696960D02*
X12960396Y-11706484D01*
X12960396Y-11706484D02*
X12912777Y-11706484D01*
X13112777Y-11706484D02*
X13112777Y-11573150D01*
X13112777Y-11611246D02*
X13122301Y-11592198D01*
X13122301Y-11592198D02*
X13131824Y-11582674D01*
X13131824Y-11582674D02*
X13150872Y-11573150D01*
X13150872Y-11573150D02*
X13169920Y-11573150D01*
X13236586Y-11706484D02*
X13236586Y-11573150D01*
X13236586Y-11506484D02*
X13227062Y-11516008D01*
X13227062Y-11516008D02*
X13236586Y-11525531D01*
X13236586Y-11525531D02*
X13246110Y-11516008D01*
X13246110Y-11516008D02*
X13236586Y-11506484D01*
X13236586Y-11506484D02*
X13236586Y-11525531D01*
X13360396Y-11706484D02*
X13341348Y-11696960D01*
X13341348Y-11696960D02*
X13331824Y-11677912D01*
X13331824Y-11677912D02*
X13331824Y-11506484D01*
X13465158Y-11706484D02*
X13446110Y-11696960D01*
X13446110Y-11696960D02*
X13436586Y-11677912D01*
X13436586Y-11677912D02*
X13436586Y-11506484D01*
X13693729Y-11706484D02*
X13693729Y-11506484D01*
X13693729Y-11506484D02*
X13760396Y-11649341D01*
X13760396Y-11649341D02*
X13827062Y-11506484D01*
X13827062Y-11506484D02*
X13827062Y-11706484D01*
X14008015Y-11706484D02*
X14008015Y-11601722D01*
X14008015Y-11601722D02*
X13998491Y-11582674D01*
X13998491Y-11582674D02*
X13979443Y-11573150D01*
X13979443Y-11573150D02*
X13941348Y-11573150D01*
X13941348Y-11573150D02*
X13922301Y-11582674D01*
X14008015Y-11696960D02*
X13988967Y-11706484D01*
X13988967Y-11706484D02*
X13941348Y-11706484D01*
X13941348Y-11706484D02*
X13922301Y-11696960D01*
X13922301Y-11696960D02*
X13912777Y-11677912D01*
X13912777Y-11677912D02*
X13912777Y-11658865D01*
X13912777Y-11658865D02*
X13922301Y-11639817D01*
X13922301Y-11639817D02*
X13941348Y-11630293D01*
X13941348Y-11630293D02*
X13988967Y-11630293D01*
X13988967Y-11630293D02*
X14008015Y-11620769D01*
X14103253Y-11573150D02*
X14103253Y-11773150D01*
X14103253Y-11582674D02*
X14122301Y-11573150D01*
X14122301Y-11573150D02*
X14160396Y-11573150D01*
X14160396Y-11573150D02*
X14179443Y-11582674D01*
X14179443Y-11582674D02*
X14188967Y-11592198D01*
X14188967Y-11592198D02*
X14198491Y-11611246D01*
X14198491Y-11611246D02*
X14198491Y-11668388D01*
X14198491Y-11668388D02*
X14188967Y-11687436D01*
X14188967Y-11687436D02*
X14179443Y-11696960D01*
X14179443Y-11696960D02*
X14160396Y-11706484D01*
X14160396Y-11706484D02*
X14122301Y-11706484D01*
X14122301Y-11706484D02*
X14103253Y-11696960D01*
X14284205Y-11687436D02*
X14293729Y-11696960D01*
X14293729Y-11696960D02*
X14284205Y-11706484D01*
X14284205Y-11706484D02*
X14274682Y-11696960D01*
X14274682Y-11696960D02*
X14284205Y-11687436D01*
X14284205Y-11687436D02*
X14284205Y-11706484D01*
X14284205Y-11582674D02*
X14293729Y-11592198D01*
X14293729Y-11592198D02*
X14284205Y-11601722D01*
X14284205Y-11601722D02*
X14274682Y-11592198D01*
X14274682Y-11592198D02*
X14284205Y-11582674D01*
X14284205Y-11582674D02*
X14284205Y-11601722D01*
M02*
