G04 #@! TF.GenerationSoftware,KiCad,Pcbnew,9.0.4*
G04 #@! TF.CreationDate,2025-10-28T23:18:59-04:00*
G04 #@! TF.ProjectId,DEL_MCPCB,44454c5f-4d43-4504-9342-2e6b69636164,rev?*
G04 #@! TF.SameCoordinates,Original*
G04 #@! TF.FileFunction,Legend,Top*
G04 #@! TF.FilePolarity,Positive*
%FSLAX46Y46*%
G04 Gerber Fmt 4.6, Leading zero omitted, Abs format (unit mm)*
G04 Created by KiCad (PCBNEW 9.0.4) date 2025-10-28 23:18:59*
%MOMM*%
%LPD*%
G01*
G04 APERTURE LIST*
%ADD10C,0.150000*%
%ADD11C,0.200000*%
%ADD12C,0.120000*%
%ADD13C,0.152400*%
G04 APERTURE END LIST*
D10*
X149996760Y-107935385D02*
X149996760Y-107135385D01*
X149996760Y-107135385D02*
X150263426Y-107706813D01*
X150263426Y-107706813D02*
X150530093Y-107135385D01*
X150530093Y-107135385D02*
X150530093Y-107935385D01*
X151253903Y-107935385D02*
X151253903Y-107516337D01*
X151253903Y-107516337D02*
X151215808Y-107440147D01*
X151215808Y-107440147D02*
X151139617Y-107402051D01*
X151139617Y-107402051D02*
X150987236Y-107402051D01*
X150987236Y-107402051D02*
X150911046Y-107440147D01*
X151253903Y-107897290D02*
X151177712Y-107935385D01*
X151177712Y-107935385D02*
X150987236Y-107935385D01*
X150987236Y-107935385D02*
X150911046Y-107897290D01*
X150911046Y-107897290D02*
X150872950Y-107821099D01*
X150872950Y-107821099D02*
X150872950Y-107744909D01*
X150872950Y-107744909D02*
X150911046Y-107668718D01*
X150911046Y-107668718D02*
X150987236Y-107630623D01*
X150987236Y-107630623D02*
X151177712Y-107630623D01*
X151177712Y-107630623D02*
X151253903Y-107592528D01*
X151520570Y-107402051D02*
X151825332Y-107402051D01*
X151634856Y-107135385D02*
X151634856Y-107821099D01*
X151634856Y-107821099D02*
X151672951Y-107897290D01*
X151672951Y-107897290D02*
X151749141Y-107935385D01*
X151749141Y-107935385D02*
X151825332Y-107935385D01*
X151977713Y-107402051D02*
X152282475Y-107402051D01*
X152091999Y-107135385D02*
X152091999Y-107821099D01*
X152091999Y-107821099D02*
X152130094Y-107897290D01*
X152130094Y-107897290D02*
X152206284Y-107935385D01*
X152206284Y-107935385D02*
X152282475Y-107935385D01*
X152549142Y-107935385D02*
X152549142Y-107402051D01*
X152549142Y-107135385D02*
X152511046Y-107173480D01*
X152511046Y-107173480D02*
X152549142Y-107211575D01*
X152549142Y-107211575D02*
X152587237Y-107173480D01*
X152587237Y-107173480D02*
X152549142Y-107135385D01*
X152549142Y-107135385D02*
X152549142Y-107211575D01*
X153272951Y-107935385D02*
X153272951Y-107516337D01*
X153272951Y-107516337D02*
X153234856Y-107440147D01*
X153234856Y-107440147D02*
X153158665Y-107402051D01*
X153158665Y-107402051D02*
X153006284Y-107402051D01*
X153006284Y-107402051D02*
X152930094Y-107440147D01*
X153272951Y-107897290D02*
X153196760Y-107935385D01*
X153196760Y-107935385D02*
X153006284Y-107935385D01*
X153006284Y-107935385D02*
X152930094Y-107897290D01*
X152930094Y-107897290D02*
X152891998Y-107821099D01*
X152891998Y-107821099D02*
X152891998Y-107744909D01*
X152891998Y-107744909D02*
X152930094Y-107668718D01*
X152930094Y-107668718D02*
X153006284Y-107630623D01*
X153006284Y-107630623D02*
X153196760Y-107630623D01*
X153196760Y-107630623D02*
X153272951Y-107592528D01*
X153615808Y-107897290D02*
X153691999Y-107935385D01*
X153691999Y-107935385D02*
X153844380Y-107935385D01*
X153844380Y-107935385D02*
X153920570Y-107897290D01*
X153920570Y-107897290D02*
X153958666Y-107821099D01*
X153958666Y-107821099D02*
X153958666Y-107783004D01*
X153958666Y-107783004D02*
X153920570Y-107706813D01*
X153920570Y-107706813D02*
X153844380Y-107668718D01*
X153844380Y-107668718D02*
X153730094Y-107668718D01*
X153730094Y-107668718D02*
X153653904Y-107630623D01*
X153653904Y-107630623D02*
X153615808Y-107554432D01*
X153615808Y-107554432D02*
X153615808Y-107516337D01*
X153615808Y-107516337D02*
X153653904Y-107440147D01*
X153653904Y-107440147D02*
X153730094Y-107402051D01*
X153730094Y-107402051D02*
X153844380Y-107402051D01*
X153844380Y-107402051D02*
X153920570Y-107440147D01*
X154796761Y-107135385D02*
X155063428Y-107935385D01*
X155063428Y-107935385D02*
X155330094Y-107135385D01*
X155596761Y-107859194D02*
X155634856Y-107897290D01*
X155634856Y-107897290D02*
X155596761Y-107935385D01*
X155596761Y-107935385D02*
X155558665Y-107897290D01*
X155558665Y-107897290D02*
X155596761Y-107859194D01*
X155596761Y-107859194D02*
X155596761Y-107935385D01*
X156358665Y-107935385D02*
X155977713Y-107935385D01*
X155977713Y-107935385D02*
X155977713Y-107135385D01*
X156625332Y-107859194D02*
X156663427Y-107897290D01*
X156663427Y-107897290D02*
X156625332Y-107935385D01*
X156625332Y-107935385D02*
X156587236Y-107897290D01*
X156587236Y-107897290D02*
X156625332Y-107859194D01*
X156625332Y-107859194D02*
X156625332Y-107935385D01*
X149882474Y-108423340D02*
X150149141Y-109223340D01*
X150149141Y-109223340D02*
X150415807Y-108423340D01*
X151101521Y-109223340D02*
X150644378Y-109223340D01*
X150872950Y-109223340D02*
X150872950Y-108423340D01*
X150872950Y-108423340D02*
X150796759Y-108537625D01*
X150796759Y-108537625D02*
X150720569Y-108613816D01*
X150720569Y-108613816D02*
X150644378Y-108651911D01*
X150415807Y-110511295D02*
X149958664Y-110511295D01*
X150187236Y-110511295D02*
X150187236Y-109711295D01*
X150187236Y-109711295D02*
X150111045Y-109825580D01*
X150111045Y-109825580D02*
X150034855Y-109901771D01*
X150034855Y-109901771D02*
X149958664Y-109939866D01*
X150911046Y-109711295D02*
X150987236Y-109711295D01*
X150987236Y-109711295D02*
X151063427Y-109749390D01*
X151063427Y-109749390D02*
X151101522Y-109787485D01*
X151101522Y-109787485D02*
X151139617Y-109863676D01*
X151139617Y-109863676D02*
X151177712Y-110016057D01*
X151177712Y-110016057D02*
X151177712Y-110206533D01*
X151177712Y-110206533D02*
X151139617Y-110358914D01*
X151139617Y-110358914D02*
X151101522Y-110435104D01*
X151101522Y-110435104D02*
X151063427Y-110473200D01*
X151063427Y-110473200D02*
X150987236Y-110511295D01*
X150987236Y-110511295D02*
X150911046Y-110511295D01*
X150911046Y-110511295D02*
X150834855Y-110473200D01*
X150834855Y-110473200D02*
X150796760Y-110435104D01*
X150796760Y-110435104D02*
X150758665Y-110358914D01*
X150758665Y-110358914D02*
X150720569Y-110206533D01*
X150720569Y-110206533D02*
X150720569Y-110016057D01*
X150720569Y-110016057D02*
X150758665Y-109863676D01*
X150758665Y-109863676D02*
X150796760Y-109787485D01*
X150796760Y-109787485D02*
X150834855Y-109749390D01*
X150834855Y-109749390D02*
X150911046Y-109711295D01*
X152091998Y-109673200D02*
X151406284Y-110701771D01*
X152320569Y-109787485D02*
X152358665Y-109749390D01*
X152358665Y-109749390D02*
X152434855Y-109711295D01*
X152434855Y-109711295D02*
X152625331Y-109711295D01*
X152625331Y-109711295D02*
X152701522Y-109749390D01*
X152701522Y-109749390D02*
X152739617Y-109787485D01*
X152739617Y-109787485D02*
X152777712Y-109863676D01*
X152777712Y-109863676D02*
X152777712Y-109939866D01*
X152777712Y-109939866D02*
X152739617Y-110054152D01*
X152739617Y-110054152D02*
X152282474Y-110511295D01*
X152282474Y-110511295D02*
X152777712Y-110511295D01*
X153539617Y-110511295D02*
X153082474Y-110511295D01*
X153311046Y-110511295D02*
X153311046Y-109711295D01*
X153311046Y-109711295D02*
X153234855Y-109825580D01*
X153234855Y-109825580D02*
X153158665Y-109901771D01*
X153158665Y-109901771D02*
X153082474Y-109939866D01*
X154453903Y-109673200D02*
X153768189Y-110701771D01*
X154682474Y-109787485D02*
X154720570Y-109749390D01*
X154720570Y-109749390D02*
X154796760Y-109711295D01*
X154796760Y-109711295D02*
X154987236Y-109711295D01*
X154987236Y-109711295D02*
X155063427Y-109749390D01*
X155063427Y-109749390D02*
X155101522Y-109787485D01*
X155101522Y-109787485D02*
X155139617Y-109863676D01*
X155139617Y-109863676D02*
X155139617Y-109939866D01*
X155139617Y-109939866D02*
X155101522Y-110054152D01*
X155101522Y-110054152D02*
X154644379Y-110511295D01*
X154644379Y-110511295D02*
X155139617Y-110511295D01*
X155634856Y-109711295D02*
X155711046Y-109711295D01*
X155711046Y-109711295D02*
X155787237Y-109749390D01*
X155787237Y-109749390D02*
X155825332Y-109787485D01*
X155825332Y-109787485D02*
X155863427Y-109863676D01*
X155863427Y-109863676D02*
X155901522Y-110016057D01*
X155901522Y-110016057D02*
X155901522Y-110206533D01*
X155901522Y-110206533D02*
X155863427Y-110358914D01*
X155863427Y-110358914D02*
X155825332Y-110435104D01*
X155825332Y-110435104D02*
X155787237Y-110473200D01*
X155787237Y-110473200D02*
X155711046Y-110511295D01*
X155711046Y-110511295D02*
X155634856Y-110511295D01*
X155634856Y-110511295D02*
X155558665Y-110473200D01*
X155558665Y-110473200D02*
X155520570Y-110435104D01*
X155520570Y-110435104D02*
X155482475Y-110358914D01*
X155482475Y-110358914D02*
X155444379Y-110206533D01*
X155444379Y-110206533D02*
X155444379Y-110016057D01*
X155444379Y-110016057D02*
X155482475Y-109863676D01*
X155482475Y-109863676D02*
X155520570Y-109787485D01*
X155520570Y-109787485D02*
X155558665Y-109749390D01*
X155558665Y-109749390D02*
X155634856Y-109711295D01*
X156206284Y-109787485D02*
X156244380Y-109749390D01*
X156244380Y-109749390D02*
X156320570Y-109711295D01*
X156320570Y-109711295D02*
X156511046Y-109711295D01*
X156511046Y-109711295D02*
X156587237Y-109749390D01*
X156587237Y-109749390D02*
X156625332Y-109787485D01*
X156625332Y-109787485D02*
X156663427Y-109863676D01*
X156663427Y-109863676D02*
X156663427Y-109939866D01*
X156663427Y-109939866D02*
X156625332Y-110054152D01*
X156625332Y-110054152D02*
X156168189Y-110511295D01*
X156168189Y-110511295D02*
X156663427Y-110511295D01*
X157387237Y-109711295D02*
X157006285Y-109711295D01*
X157006285Y-109711295D02*
X156968189Y-110092247D01*
X156968189Y-110092247D02*
X157006285Y-110054152D01*
X157006285Y-110054152D02*
X157082475Y-110016057D01*
X157082475Y-110016057D02*
X157272951Y-110016057D01*
X157272951Y-110016057D02*
X157349142Y-110054152D01*
X157349142Y-110054152D02*
X157387237Y-110092247D01*
X157387237Y-110092247D02*
X157425332Y-110168438D01*
X157425332Y-110168438D02*
X157425332Y-110358914D01*
X157425332Y-110358914D02*
X157387237Y-110435104D01*
X157387237Y-110435104D02*
X157349142Y-110473200D01*
X157349142Y-110473200D02*
X157272951Y-110511295D01*
X157272951Y-110511295D02*
X157082475Y-110511295D01*
X157082475Y-110511295D02*
X157006285Y-110473200D01*
X157006285Y-110473200D02*
X156968189Y-110435104D01*
X147810866Y-95494819D02*
X147810866Y-96209104D01*
X147810866Y-96209104D02*
X147763247Y-96351961D01*
X147763247Y-96351961D02*
X147668009Y-96447200D01*
X147668009Y-96447200D02*
X147525152Y-96494819D01*
X147525152Y-96494819D02*
X147429914Y-96494819D01*
X148810866Y-96494819D02*
X148239438Y-96494819D01*
X148525152Y-96494819D02*
X148525152Y-95494819D01*
X148525152Y-95494819D02*
X148429914Y-95637676D01*
X148429914Y-95637676D02*
X148334676Y-95732914D01*
X148334676Y-95732914D02*
X148239438Y-95780533D01*
X164417587Y-103736909D02*
X164917587Y-102870884D01*
X164917587Y-102870884D02*
X165123784Y-102989931D01*
X165123784Y-102989931D02*
X165223692Y-103102599D01*
X165223692Y-103102599D02*
X165258552Y-103232697D01*
X165258552Y-103232697D02*
X165252172Y-103338985D01*
X165252172Y-103338985D02*
X165198173Y-103527752D01*
X165198173Y-103527752D02*
X165126745Y-103651470D01*
X165126745Y-103651470D02*
X164990267Y-103792617D01*
X164990267Y-103792617D02*
X164901409Y-103851286D01*
X164901409Y-103851286D02*
X164771311Y-103886146D01*
X164771311Y-103886146D02*
X164623784Y-103855957D01*
X164623784Y-103855957D02*
X164417587Y-103736909D01*
X165701134Y-103323265D02*
X166278484Y-103656598D01*
X166278484Y-103656598D02*
X165407330Y-104308338D01*
X135571997Y-84382975D02*
X135745645Y-83398167D01*
X135745645Y-83398167D02*
X135980123Y-83439512D01*
X135980123Y-83439512D02*
X136112541Y-83511215D01*
X136112541Y-83511215D02*
X136189794Y-83621544D01*
X136189794Y-83621544D02*
X136220152Y-83723604D01*
X136220152Y-83723604D02*
X136233971Y-83919455D01*
X136233971Y-83919455D02*
X136209164Y-84060142D01*
X136209164Y-84060142D02*
X136129193Y-84239456D01*
X136129193Y-84239456D02*
X136065760Y-84324978D01*
X136065760Y-84324978D02*
X135955430Y-84402231D01*
X135955430Y-84402231D02*
X135806475Y-84424320D01*
X135806475Y-84424320D02*
X135571997Y-84382975D01*
X136603700Y-84564892D02*
X136791282Y-84597968D01*
X136791282Y-84597968D02*
X136893343Y-84567610D01*
X136893343Y-84567610D02*
X136948507Y-84528984D01*
X136948507Y-84528984D02*
X137067105Y-84404835D01*
X137067105Y-84404835D02*
X137147077Y-84225521D01*
X137147077Y-84225521D02*
X137213228Y-83850356D01*
X137213228Y-83850356D02*
X137182871Y-83748296D01*
X137182871Y-83748296D02*
X137144244Y-83693132D01*
X137144244Y-83693132D02*
X137058722Y-83629698D01*
X137058722Y-83629698D02*
X136871139Y-83596622D01*
X136871139Y-83596622D02*
X136769079Y-83626980D01*
X136769079Y-83626980D02*
X136713915Y-83665607D01*
X136713915Y-83665607D02*
X136650481Y-83751129D01*
X136650481Y-83751129D02*
X136609136Y-83985607D01*
X136609136Y-83985607D02*
X136639494Y-84087667D01*
X136639494Y-84087667D02*
X136678121Y-84142832D01*
X136678121Y-84142832D02*
X136763643Y-84206265D01*
X136763643Y-84206265D02*
X136951225Y-84239341D01*
X136951225Y-84239341D02*
X137053285Y-84208983D01*
X137053285Y-84208983D02*
X137108450Y-84170357D01*
X137108450Y-84170357D02*
X137171884Y-84084834D01*
X130636165Y-97637163D02*
X130136165Y-96771137D01*
X130136165Y-96771137D02*
X130342362Y-96652090D01*
X130342362Y-96652090D02*
X130489889Y-96621900D01*
X130489889Y-96621900D02*
X130619987Y-96656760D01*
X130619987Y-96656760D02*
X130708845Y-96715429D01*
X130708845Y-96715429D02*
X130845323Y-96856577D01*
X130845323Y-96856577D02*
X130916751Y-96980295D01*
X130916751Y-96980295D02*
X130970750Y-97169061D01*
X130970750Y-97169061D02*
X130977130Y-97275350D01*
X130977130Y-97275350D02*
X130942270Y-97405447D01*
X130942270Y-97405447D02*
X130842362Y-97518115D01*
X130842362Y-97518115D02*
X130636165Y-97637163D01*
X131955823Y-96875258D02*
X131460951Y-97160972D01*
X131708387Y-97018115D02*
X131208387Y-96152090D01*
X131208387Y-96152090D02*
X131197337Y-96323427D01*
X131197337Y-96323427D02*
X131162478Y-96453524D01*
X131162478Y-96453524D02*
X131103808Y-96542383D01*
X164495325Y-91834996D02*
X164321677Y-90850189D01*
X164321677Y-90850189D02*
X164556155Y-90808844D01*
X164556155Y-90808844D02*
X164705111Y-90830933D01*
X164705111Y-90830933D02*
X164815440Y-90908186D01*
X164815440Y-90908186D02*
X164878873Y-90993708D01*
X164878873Y-90993708D02*
X164958845Y-91173022D01*
X164958845Y-91173022D02*
X164983652Y-91313708D01*
X164983652Y-91313708D02*
X164969832Y-91509560D01*
X164969832Y-91509560D02*
X164939474Y-91611620D01*
X164939474Y-91611620D02*
X164862221Y-91721949D01*
X164862221Y-91721949D02*
X164729803Y-91793652D01*
X164729803Y-91793652D02*
X164495325Y-91834996D01*
X165995984Y-91570390D02*
X165433237Y-91669617D01*
X165714611Y-91620003D02*
X165540963Y-90635196D01*
X165540963Y-90635196D02*
X165471978Y-90792420D01*
X165471978Y-90792420D02*
X165394725Y-90902749D01*
X165394725Y-90902749D02*
X165309203Y-90966183D01*
X166150606Y-90527699D02*
X166760248Y-90420203D01*
X166760248Y-90420203D02*
X166498131Y-90853250D01*
X166498131Y-90853250D02*
X166638818Y-90828443D01*
X166638818Y-90828443D02*
X166740878Y-90858801D01*
X166740878Y-90858801D02*
X166796042Y-90897428D01*
X166796042Y-90897428D02*
X166859476Y-90982950D01*
X166859476Y-90982950D02*
X166900821Y-91217428D01*
X166900821Y-91217428D02*
X166870463Y-91319488D01*
X166870463Y-91319488D02*
X166831836Y-91374653D01*
X166831836Y-91374653D02*
X166746314Y-91438086D01*
X166746314Y-91438086D02*
X166464941Y-91487700D01*
X166464941Y-91487700D02*
X166362880Y-91457342D01*
X166362880Y-91457342D02*
X166307716Y-91418716D01*
X140601419Y-105583533D02*
X141315704Y-105583533D01*
X141315704Y-105583533D02*
X141458561Y-105631152D01*
X141458561Y-105631152D02*
X141553800Y-105726390D01*
X141553800Y-105726390D02*
X141601419Y-105869247D01*
X141601419Y-105869247D02*
X141601419Y-105964485D01*
X141601419Y-105107342D02*
X140601419Y-105107342D01*
X140601419Y-105107342D02*
X140601419Y-104726390D01*
X140601419Y-104726390D02*
X140649038Y-104631152D01*
X140649038Y-104631152D02*
X140696657Y-104583533D01*
X140696657Y-104583533D02*
X140791895Y-104535914D01*
X140791895Y-104535914D02*
X140934752Y-104535914D01*
X140934752Y-104535914D02*
X141029990Y-104583533D01*
X141029990Y-104583533D02*
X141077609Y-104631152D01*
X141077609Y-104631152D02*
X141125228Y-104726390D01*
X141125228Y-104726390D02*
X141125228Y-105107342D01*
X141601419Y-103583533D02*
X141601419Y-104154961D01*
X141601419Y-103869247D02*
X140601419Y-103869247D01*
X140601419Y-103869247D02*
X140744276Y-103964485D01*
X140744276Y-103964485D02*
X140839514Y-104059723D01*
X140839514Y-104059723D02*
X140887133Y-104154961D01*
X165743720Y-78663514D02*
X164977675Y-78020726D01*
X164977675Y-78020726D02*
X165130720Y-77838335D01*
X165130720Y-77838335D02*
X165259025Y-77759509D01*
X165259025Y-77759509D02*
X165393200Y-77747770D01*
X165393200Y-77747770D02*
X165496765Y-77772510D01*
X165496765Y-77772510D02*
X165673287Y-77858467D01*
X165673287Y-77858467D02*
X165782722Y-77950294D01*
X165782722Y-77950294D02*
X165898027Y-78109208D01*
X165898027Y-78109208D02*
X165940374Y-78206904D01*
X165940374Y-78206904D02*
X165952113Y-78341079D01*
X165952113Y-78341079D02*
X165896765Y-78481122D01*
X165896765Y-78481122D02*
X165743720Y-78663514D01*
X165926552Y-76889899D02*
X165620463Y-77254682D01*
X165620463Y-77254682D02*
X165954637Y-77597250D01*
X165954637Y-77597250D02*
X165948768Y-77530162D01*
X165948768Y-77530162D02*
X165973507Y-77426597D01*
X165973507Y-77426597D02*
X166126552Y-77244205D01*
X166126552Y-77244205D02*
X166224248Y-77201858D01*
X166224248Y-77201858D02*
X166291336Y-77195988D01*
X166291336Y-77195988D02*
X166394901Y-77220728D01*
X166394901Y-77220728D02*
X166577293Y-77373772D01*
X166577293Y-77373772D02*
X166619640Y-77471469D01*
X166619640Y-77471469D02*
X166625510Y-77538556D01*
X166625510Y-77538556D02*
X166600770Y-77642121D01*
X166600770Y-77642121D02*
X166447725Y-77824513D01*
X166447725Y-77824513D02*
X166350029Y-77866861D01*
X166350029Y-77866861D02*
X166282942Y-77872730D01*
X162085414Y-82887565D02*
X161319370Y-82244778D01*
X161319370Y-82244778D02*
X161472414Y-82062386D01*
X161472414Y-82062386D02*
X161600720Y-81983560D01*
X161600720Y-81983560D02*
X161734894Y-81971822D01*
X161734894Y-81971822D02*
X161838460Y-81996561D01*
X161838460Y-81996561D02*
X162014982Y-82082519D01*
X162014982Y-82082519D02*
X162124417Y-82174345D01*
X162124417Y-82174345D02*
X162239721Y-82333259D01*
X162239721Y-82333259D02*
X162282069Y-82430956D01*
X162282069Y-82430956D02*
X162293807Y-82565130D01*
X162293807Y-82565130D02*
X162238459Y-82705174D01*
X162238459Y-82705174D02*
X162085414Y-82887565D01*
X163064900Y-81720260D02*
X162697593Y-82157999D01*
X162881247Y-81939129D02*
X162115202Y-81296342D01*
X162115202Y-81296342D02*
X162163419Y-81461125D01*
X162163419Y-81461125D02*
X162175158Y-81595300D01*
X162175158Y-81595300D02*
X162150418Y-81698865D01*
X162616684Y-80846863D02*
X162610814Y-80779776D01*
X162610814Y-80779776D02*
X162635554Y-80676211D01*
X162635554Y-80676211D02*
X162788599Y-80493819D01*
X162788599Y-80493819D02*
X162886295Y-80451471D01*
X162886295Y-80451471D02*
X162953382Y-80445602D01*
X162953382Y-80445602D02*
X163056948Y-80470342D01*
X163056948Y-80470342D02*
X163129904Y-80531559D01*
X163129904Y-80531559D02*
X163208730Y-80659865D01*
X163208730Y-80659865D02*
X163279163Y-81464911D01*
X163279163Y-81464911D02*
X163677079Y-80990693D01*
X154455391Y-76969116D02*
X153455391Y-76969116D01*
X153455391Y-76969116D02*
X153455391Y-76731021D01*
X153455391Y-76731021D02*
X153503010Y-76588164D01*
X153503010Y-76588164D02*
X153598248Y-76492926D01*
X153598248Y-76492926D02*
X153693486Y-76445307D01*
X153693486Y-76445307D02*
X153883962Y-76397688D01*
X153883962Y-76397688D02*
X154026819Y-76397688D01*
X154026819Y-76397688D02*
X154217295Y-76445307D01*
X154217295Y-76445307D02*
X154312533Y-76492926D01*
X154312533Y-76492926D02*
X154407772Y-76588164D01*
X154407772Y-76588164D02*
X154455391Y-76731021D01*
X154455391Y-76731021D02*
X154455391Y-76969116D01*
X154455391Y-75445307D02*
X154455391Y-76016735D01*
X154455391Y-75731021D02*
X153455391Y-75731021D01*
X153455391Y-75731021D02*
X153598248Y-75826259D01*
X153598248Y-75826259D02*
X153693486Y-75921497D01*
X153693486Y-75921497D02*
X153741105Y-76016735D01*
X154455391Y-74492926D02*
X154455391Y-75064354D01*
X154455391Y-74778640D02*
X153455391Y-74778640D01*
X153455391Y-74778640D02*
X153598248Y-74873878D01*
X153598248Y-74873878D02*
X153693486Y-74969116D01*
X153693486Y-74969116D02*
X153741105Y-75064354D01*
X154542648Y-71381791D02*
X153542648Y-71381791D01*
X153542648Y-71381791D02*
X153542648Y-71143696D01*
X153542648Y-71143696D02*
X153590267Y-71000839D01*
X153590267Y-71000839D02*
X153685505Y-70905601D01*
X153685505Y-70905601D02*
X153780743Y-70857982D01*
X153780743Y-70857982D02*
X153971219Y-70810363D01*
X153971219Y-70810363D02*
X154114076Y-70810363D01*
X154114076Y-70810363D02*
X154304552Y-70857982D01*
X154304552Y-70857982D02*
X154399790Y-70905601D01*
X154399790Y-70905601D02*
X154495029Y-71000839D01*
X154495029Y-71000839D02*
X154542648Y-71143696D01*
X154542648Y-71143696D02*
X154542648Y-71381791D01*
X153875981Y-69953220D02*
X154542648Y-69953220D01*
X153495029Y-70191315D02*
X154209314Y-70429410D01*
X154209314Y-70429410D02*
X154209314Y-69810363D01*
X139635828Y-72457455D02*
X140401872Y-71814668D01*
X140401872Y-71814668D02*
X140554917Y-71997059D01*
X140554917Y-71997059D02*
X140610265Y-72137103D01*
X140610265Y-72137103D02*
X140598527Y-72271277D01*
X140598527Y-72271277D02*
X140556179Y-72368974D01*
X140556179Y-72368974D02*
X140440875Y-72527888D01*
X140440875Y-72527888D02*
X140331440Y-72619714D01*
X140331440Y-72619714D02*
X140154918Y-72705672D01*
X140154918Y-72705672D02*
X140051352Y-72730411D01*
X140051352Y-72730411D02*
X139917178Y-72718673D01*
X139917178Y-72718673D02*
X139788872Y-72639847D01*
X139788872Y-72639847D02*
X139635828Y-72457455D01*
X140983442Y-72507755D02*
X141381358Y-72981973D01*
X141381358Y-72981973D02*
X140875269Y-72971497D01*
X140875269Y-72971497D02*
X140967096Y-73080932D01*
X140967096Y-73080932D02*
X140991835Y-73184497D01*
X140991835Y-73184497D02*
X140985966Y-73251584D01*
X140985966Y-73251584D02*
X140943618Y-73349281D01*
X140943618Y-73349281D02*
X140761227Y-73502325D01*
X140761227Y-73502325D02*
X140657661Y-73527065D01*
X140657661Y-73527065D02*
X140590574Y-73521195D01*
X140590574Y-73521195D02*
X140492878Y-73478848D01*
X140492878Y-73478848D02*
X140309224Y-73259978D01*
X140309224Y-73259978D02*
X140284485Y-73156412D01*
X140284485Y-73156412D02*
X140290354Y-73089325D01*
X131246282Y-82630267D02*
X131333438Y-81634072D01*
X131333438Y-81634072D02*
X131570627Y-81654823D01*
X131570627Y-81654823D02*
X131708791Y-81714712D01*
X131708791Y-81714712D02*
X131795366Y-81817888D01*
X131795366Y-81817888D02*
X131834503Y-81916914D01*
X131834503Y-81916914D02*
X131865340Y-82110816D01*
X131865340Y-82110816D02*
X131852889Y-82253129D01*
X131852889Y-82253129D02*
X131788850Y-82438730D01*
X131788850Y-82438730D02*
X131733112Y-82529456D01*
X131733112Y-82529456D02*
X131629935Y-82616031D01*
X131629935Y-82616031D02*
X131483472Y-82651018D01*
X131483472Y-82651018D02*
X131246282Y-82630267D01*
X132273894Y-81811953D02*
X132325482Y-81768666D01*
X132325482Y-81768666D02*
X132424508Y-81729528D01*
X132424508Y-81729528D02*
X132661698Y-81750280D01*
X132661698Y-81750280D02*
X132752423Y-81806018D01*
X132752423Y-81806018D02*
X132795711Y-81857606D01*
X132795711Y-81857606D02*
X132834848Y-81956632D01*
X132834848Y-81956632D02*
X132826547Y-82051508D01*
X132826547Y-82051508D02*
X132766659Y-82189671D01*
X132766659Y-82189671D02*
X132147601Y-82709122D01*
X132147601Y-82709122D02*
X132764293Y-82763075D01*
X168287497Y-89095078D02*
X168113848Y-88110270D01*
X168113848Y-88110270D02*
X168348326Y-88068925D01*
X168348326Y-88068925D02*
X168497282Y-88091014D01*
X168497282Y-88091014D02*
X168607611Y-88168267D01*
X168607611Y-88168267D02*
X168671045Y-88253789D01*
X168671045Y-88253789D02*
X168751016Y-88433103D01*
X168751016Y-88433103D02*
X168775823Y-88573790D01*
X168775823Y-88573790D02*
X168762003Y-88769641D01*
X168762003Y-88769641D02*
X168731646Y-88871701D01*
X168731646Y-88871701D02*
X168654392Y-88982030D01*
X168654392Y-88982030D02*
X168521975Y-89053733D01*
X168521975Y-89053733D02*
X168287497Y-89095078D01*
X169520717Y-87862201D02*
X169333134Y-87895277D01*
X169333134Y-87895277D02*
X169247612Y-87958710D01*
X169247612Y-87958710D02*
X169208985Y-88013875D01*
X169208985Y-88013875D02*
X169140001Y-88171100D01*
X169140001Y-88171100D02*
X169126181Y-88366951D01*
X169126181Y-88366951D02*
X169192333Y-88742116D01*
X169192333Y-88742116D02*
X169255766Y-88827638D01*
X169255766Y-88827638D02*
X169310931Y-88866265D01*
X169310931Y-88866265D02*
X169412991Y-88896623D01*
X169412991Y-88896623D02*
X169600574Y-88863547D01*
X169600574Y-88863547D02*
X169686096Y-88800113D01*
X169686096Y-88800113D02*
X169724722Y-88744949D01*
X169724722Y-88744949D02*
X169755080Y-88642888D01*
X169755080Y-88642888D02*
X169713735Y-88408410D01*
X169713735Y-88408410D02*
X169650302Y-88322888D01*
X169650302Y-88322888D02*
X169595137Y-88284262D01*
X169595137Y-88284262D02*
X169493077Y-88253904D01*
X169493077Y-88253904D02*
X169305495Y-88286980D01*
X169305495Y-88286980D02*
X169219972Y-88350413D01*
X169219972Y-88350413D02*
X169181346Y-88405578D01*
X169181346Y-88405578D02*
X169150988Y-88507638D01*
X159145819Y-102306333D02*
X159860104Y-102306333D01*
X159860104Y-102306333D02*
X160002961Y-102353952D01*
X160002961Y-102353952D02*
X160098200Y-102449190D01*
X160098200Y-102449190D02*
X160145819Y-102592047D01*
X160145819Y-102592047D02*
X160145819Y-102687285D01*
X160145819Y-101830142D02*
X159145819Y-101830142D01*
X159145819Y-101830142D02*
X159145819Y-101449190D01*
X159145819Y-101449190D02*
X159193438Y-101353952D01*
X159193438Y-101353952D02*
X159241057Y-101306333D01*
X159241057Y-101306333D02*
X159336295Y-101258714D01*
X159336295Y-101258714D02*
X159479152Y-101258714D01*
X159479152Y-101258714D02*
X159574390Y-101306333D01*
X159574390Y-101306333D02*
X159622009Y-101353952D01*
X159622009Y-101353952D02*
X159669628Y-101449190D01*
X159669628Y-101449190D02*
X159669628Y-101830142D01*
X159241057Y-100877761D02*
X159193438Y-100830142D01*
X159193438Y-100830142D02*
X159145819Y-100734904D01*
X159145819Y-100734904D02*
X159145819Y-100496809D01*
X159145819Y-100496809D02*
X159193438Y-100401571D01*
X159193438Y-100401571D02*
X159241057Y-100353952D01*
X159241057Y-100353952D02*
X159336295Y-100306333D01*
X159336295Y-100306333D02*
X159431533Y-100306333D01*
X159431533Y-100306333D02*
X159574390Y-100353952D01*
X159574390Y-100353952D02*
X160145819Y-100925380D01*
X160145819Y-100925380D02*
X160145819Y-100306333D01*
X160823788Y-101564541D02*
X161323788Y-100698516D01*
X161323788Y-100698516D02*
X161529984Y-100817564D01*
X161529984Y-100817564D02*
X161629893Y-100930232D01*
X161629893Y-100930232D02*
X161664752Y-101060329D01*
X161664752Y-101060329D02*
X161658372Y-101166617D01*
X161658372Y-101166617D02*
X161604374Y-101355384D01*
X161604374Y-101355384D02*
X161532945Y-101479102D01*
X161532945Y-101479102D02*
X161396468Y-101620250D01*
X161396468Y-101620250D02*
X161307609Y-101678919D01*
X161307609Y-101678919D02*
X161177512Y-101713778D01*
X161177512Y-101713778D02*
X161029984Y-101683589D01*
X161029984Y-101683589D02*
X160823788Y-101564541D01*
X162143445Y-102326446D02*
X161648574Y-102040732D01*
X161896010Y-102183589D02*
X162396010Y-101317564D01*
X162396010Y-101317564D02*
X162242102Y-101393663D01*
X162242102Y-101393663D02*
X162112005Y-101428522D01*
X162112005Y-101428522D02*
X162005717Y-101422142D01*
X163219086Y-102177667D02*
X162885753Y-102755018D01*
X163203366Y-101728705D02*
X162640027Y-102228247D01*
X162640027Y-102228247D02*
X163176138Y-102537771D01*
X142548268Y-76064116D02*
X143314312Y-75421328D01*
X143314312Y-75421328D02*
X143467357Y-75603720D01*
X143467357Y-75603720D02*
X143522706Y-75743763D01*
X143522706Y-75743763D02*
X143510967Y-75877938D01*
X143510967Y-75877938D02*
X143468619Y-75975634D01*
X143468619Y-75975634D02*
X143353315Y-76134548D01*
X143353315Y-76134548D02*
X143243880Y-76226375D01*
X143243880Y-76226375D02*
X143067358Y-76312332D01*
X143067358Y-76312332D02*
X142963792Y-76337072D01*
X142963792Y-76337072D02*
X142829618Y-76325333D01*
X142829618Y-76325333D02*
X142701313Y-76246507D01*
X142701313Y-76246507D02*
X142548268Y-76064116D01*
X143527754Y-77231422D02*
X143160447Y-76793682D01*
X143344100Y-77012552D02*
X144110145Y-76369764D01*
X144110145Y-76369764D02*
X143939492Y-76388634D01*
X143939492Y-76388634D02*
X143805318Y-76376895D01*
X143805318Y-76376895D02*
X143707621Y-76334548D01*
X144691715Y-77062852D02*
X144752932Y-77135809D01*
X144752932Y-77135809D02*
X144777672Y-77239374D01*
X144777672Y-77239374D02*
X144771803Y-77306461D01*
X144771803Y-77306461D02*
X144729455Y-77404157D01*
X144729455Y-77404157D02*
X144614151Y-77563072D01*
X144614151Y-77563072D02*
X144431759Y-77716116D01*
X144431759Y-77716116D02*
X144255237Y-77802074D01*
X144255237Y-77802074D02*
X144151671Y-77826813D01*
X144151671Y-77826813D02*
X144084584Y-77820944D01*
X144084584Y-77820944D02*
X143986888Y-77778596D01*
X143986888Y-77778596D02*
X143925670Y-77705640D01*
X143925670Y-77705640D02*
X143900931Y-77602074D01*
X143900931Y-77602074D02*
X143906800Y-77534987D01*
X143906800Y-77534987D02*
X143949148Y-77437291D01*
X143949148Y-77437291D02*
X144064452Y-77278377D01*
X144064452Y-77278377D02*
X144246843Y-77125332D01*
X144246843Y-77125332D02*
X144423366Y-77039374D01*
X144423366Y-77039374D02*
X144526931Y-77014635D01*
X144526931Y-77014635D02*
X144594018Y-77020504D01*
X144594018Y-77020504D02*
X144691715Y-77062852D01*
X135106165Y-95157163D02*
X134606165Y-94291137D01*
X134606165Y-94291137D02*
X134812362Y-94172090D01*
X134812362Y-94172090D02*
X134959889Y-94141900D01*
X134959889Y-94141900D02*
X135089987Y-94176760D01*
X135089987Y-94176760D02*
X135178845Y-94235429D01*
X135178845Y-94235429D02*
X135315323Y-94376577D01*
X135315323Y-94376577D02*
X135386751Y-94500295D01*
X135386751Y-94500295D02*
X135440750Y-94689061D01*
X135440750Y-94689061D02*
X135447130Y-94795350D01*
X135447130Y-94795350D02*
X135412270Y-94925447D01*
X135412270Y-94925447D02*
X135312362Y-95038115D01*
X135312362Y-95038115D02*
X135106165Y-95157163D01*
X135810194Y-94090862D02*
X135703906Y-94097242D01*
X135703906Y-94097242D02*
X135638857Y-94079812D01*
X135638857Y-94079812D02*
X135549999Y-94021143D01*
X135549999Y-94021143D02*
X135526189Y-93979904D01*
X135526189Y-93979904D02*
X135519810Y-93873616D01*
X135519810Y-93873616D02*
X135537239Y-93808567D01*
X135537239Y-93808567D02*
X135595909Y-93719709D01*
X135595909Y-93719709D02*
X135760866Y-93624471D01*
X135760866Y-93624471D02*
X135867154Y-93618091D01*
X135867154Y-93618091D02*
X135932203Y-93635521D01*
X135932203Y-93635521D02*
X136021061Y-93694190D01*
X136021061Y-93694190D02*
X136044871Y-93735429D01*
X136044871Y-93735429D02*
X136051250Y-93841717D01*
X136051250Y-93841717D02*
X136033821Y-93906766D01*
X136033821Y-93906766D02*
X135975151Y-93995624D01*
X135975151Y-93995624D02*
X135810194Y-94090862D01*
X135810194Y-94090862D02*
X135751525Y-94179721D01*
X135751525Y-94179721D02*
X135734095Y-94244770D01*
X135734095Y-94244770D02*
X135740475Y-94351058D01*
X135740475Y-94351058D02*
X135835713Y-94516015D01*
X135835713Y-94516015D02*
X135924572Y-94574684D01*
X135924572Y-94574684D02*
X135989620Y-94592114D01*
X135989620Y-94592114D02*
X136095909Y-94585734D01*
X136095909Y-94585734D02*
X136260866Y-94490496D01*
X136260866Y-94490496D02*
X136319535Y-94401638D01*
X136319535Y-94401638D02*
X136336965Y-94336589D01*
X136336965Y-94336589D02*
X136330585Y-94230301D01*
X136330585Y-94230301D02*
X136235347Y-94065344D01*
X136235347Y-94065344D02*
X136146488Y-94006674D01*
X136146488Y-94006674D02*
X136081440Y-93989245D01*
X136081440Y-93989245D02*
X135975151Y-93995624D01*
X155715619Y-97354004D02*
X156525142Y-97354004D01*
X156525142Y-97354004D02*
X156620380Y-97306385D01*
X156620380Y-97306385D02*
X156668000Y-97258766D01*
X156668000Y-97258766D02*
X156715619Y-97163528D01*
X156715619Y-97163528D02*
X156715619Y-96973052D01*
X156715619Y-96973052D02*
X156668000Y-96877814D01*
X156668000Y-96877814D02*
X156620380Y-96830195D01*
X156620380Y-96830195D02*
X156525142Y-96782576D01*
X156525142Y-96782576D02*
X155715619Y-96782576D01*
X156715619Y-95782576D02*
X156715619Y-96354004D01*
X156715619Y-96068290D02*
X155715619Y-96068290D01*
X155715619Y-96068290D02*
X155858476Y-96163528D01*
X155858476Y-96163528D02*
X155953714Y-96258766D01*
X155953714Y-96258766D02*
X156001333Y-96354004D01*
D11*
X146783100Y-97319100D02*
X149831100Y-97319100D01*
X146783100Y-97451700D02*
X146783100Y-97319100D01*
X146783100Y-102830900D02*
X146783100Y-102698300D01*
X149831100Y-97319100D02*
X149831100Y-97451700D01*
X149831100Y-102698300D02*
X149831100Y-102830900D01*
X149831100Y-102830900D02*
X146783100Y-102830900D01*
D12*
X167227168Y-103586765D02*
X164421244Y-101966765D01*
X167227168Y-103586765D02*
X168847168Y-100780841D01*
X168847168Y-100780841D02*
X166041244Y-99160841D01*
X134032310Y-88036294D02*
X137223085Y-88598913D01*
X134594929Y-84845519D02*
X134032310Y-88036294D01*
X134594929Y-84845519D02*
X137785704Y-85408138D01*
X130185003Y-98619539D02*
X131805004Y-101425462D01*
X130185003Y-98619539D02*
X132990926Y-96999538D01*
X131805004Y-101425462D02*
X134610927Y-99805461D01*
X166457414Y-86640549D02*
X163266636Y-87203169D01*
X167020034Y-89831327D02*
X163829256Y-90393947D01*
X167020034Y-89831327D02*
X166457414Y-86640549D01*
X142066600Y-105477264D02*
X142066600Y-104023136D01*
X143886600Y-105477264D02*
X143886600Y-104023136D01*
X163601750Y-73787913D02*
X161519118Y-76269899D01*
X166083736Y-75870545D02*
X163601750Y-73787913D01*
X166083736Y-75870545D02*
X164001104Y-78352531D01*
X160249535Y-77647182D02*
X158166903Y-80129166D01*
X162731519Y-79729814D02*
X160249535Y-77647182D01*
X162731519Y-79729814D02*
X160648887Y-82211798D01*
X149680572Y-74134831D02*
X149680572Y-77374831D01*
X152920572Y-74134831D02*
X149680572Y-74134831D01*
X152920572Y-74134831D02*
X152920572Y-77374831D01*
X149767828Y-69023697D02*
X149767829Y-72263698D01*
X153007829Y-69023696D02*
X149767828Y-69023697D01*
X153007829Y-69023696D02*
X153007830Y-72263697D01*
X136108049Y-74266368D02*
X138190682Y-76748353D01*
X138590034Y-72183735D02*
X136108049Y-74266368D01*
X138590034Y-72183735D02*
X140672667Y-74665720D01*
X130030861Y-86403878D02*
X133258533Y-86686262D01*
X130313245Y-83176206D02*
X130030861Y-86403878D01*
X130313245Y-83176206D02*
X133540917Y-83458590D01*
X170162747Y-83916629D02*
X166971969Y-84479249D01*
X170725367Y-87107407D02*
X167534589Y-87670027D01*
X170725367Y-87107407D02*
X170162747Y-83916629D01*
X156951000Y-100745936D02*
X156951000Y-102200064D01*
X158771000Y-100745936D02*
X158771000Y-102200064D01*
X162844424Y-100955630D02*
X160038502Y-99335630D01*
X162844424Y-100955630D02*
X164464424Y-98149708D01*
X164464424Y-98149708D02*
X161658502Y-96529708D01*
X139326580Y-78237812D02*
X141409212Y-80719796D01*
X141808564Y-76155180D02*
X139326580Y-78237812D01*
X141808564Y-76155180D02*
X143891196Y-78637164D01*
X134655004Y-96139539D02*
X136275004Y-98945461D01*
X134655004Y-96139539D02*
X137460926Y-94519539D01*
X136275004Y-98945461D02*
X139080926Y-97325461D01*
D13*
X153581100Y-96072429D02*
X153581100Y-97018371D01*
X155181300Y-97018371D02*
X155181300Y-96165829D01*
X154158200Y-98266300D02*
G75*
G02*
X153904200Y-98266300I-127000J0D01*
G01*
X153904200Y-98266300D02*
G75*
G02*
X154158200Y-98266300I127000J0D01*
G01*
M02*
